<?xml version="1.0" standalone="no"?>
<!DOCTYPE svg PUBLIC "-//W3C//DTD SVG 20010904//EN"
 "http://www.w3.org/TR/2001/REC-SVG-20010904/DTD/svg10.dtd">
<svg version="1.0" xmlns="http://www.w3.org/2000/svg"
 width="1024.000000pt" height="1024.000000pt" viewBox="0 0 1024.000000 1024.000000"
 preserveAspectRatio="xMidYMid meet">
<metadata>
Created by potrace 1.14, written by Peter Selinger 2001-2017
</metadata>
<g transform="translate(0.000000,1024.000000) scale(0.100000,-0.100000)"
fill="#000000" stroke="none">
<path d="M875 10229 c-388 -46 -713 -324 -832 -714 l-28 -90 0 -4305 0 -4305
27 -86 c57 -181 136 -314 260 -437 160 -160 352 -253 583 -281 128 -16 8322
-16 8450 0 406 50 717 314 842 714 l28 90 3 2503 c1 1376 0 2502 -2 2502 -2 0
-249 -120 -548 -266 -298 -146 -869 -425 -1268 -619 -399 -194 -851 -415
-1005 -490 -154 -76 -440 -215 -635 -310 -925 -450 -1459 -709 -1840 -895
-228 -112 -602 -294 -830 -405 -228 -111 -660 -321 -960 -467 -602 -293 -673
-325 -678 -302 -2 8 107 247 241 532 429 906 1166 2470 1262 2677 90 196 572
1214 878 1855 418 878 499 1046 507 1054 8 8 275 -524 1100 -2189 394 -794
519 -1032 590 -1116 l25 -30 370 141 c390 149 650 249 980 375 110 42 274 105
365 140 162 63 227 88 930 354 190 72 383 146 430 164 l85 33 0 1685 0 1684
-28 90 c-107 350 -360 595 -712 692 l-100 28 -4210 1 c-2316 1 -4241 -2 -4280
-7z m6647 -6951 c51 -87 230 -454 247 -506 8 -23 12 -45 9 -48 -11 -11 -555
-24 -900 -22 -197 2 -358 4 -358 5 0 3 228 159 425 291 182 121 525 341 535
342 3 0 22 -28 42 -62z"/>
<path d="M5302 6238 c-28 -35 -414 -986 -679 -1678 -165 -429 -210 -556 -201
-565 9 -9 74 12 303 100 478 184 1128 451 1268 521 56 29 57 36 21 142 -57
165 -360 825 -589 1282 -94 188 -110 213 -123 198z"/>
</g>
</svg>
