<svg width="225" height="144" viewBox="0 0 225 144" fill="none" xmlns="http://www.w3.org/2000/svg"><path d="M107.033 120.306C99.9211 125.314 106.299 120.62 94.5331 128.959C104 128.865 97.7365 128.959 110.765 128.959C115.117 129.126 119.476 128.939 123.799 128.399C123.799 127.38 117.374 114.113 116.849 114.113C116.584 114.115 111.879 117.171 107.033 120.306Z" fill="#DE4141"/><path d="M33.9911 70.6931C15.9252 109.657 0.811295 142.221 0.378052 143.15C-0.576551 145.191 -1.70555 145.655 24.0026 132.851C34.2518 127.749 53.2722 118.379 66.1282 111.971C79.0704 105.662 114.776 87.9436 145.603 72.6339C176.429 57.3241 207.011 42.2044 213.526 38.9568C220.135 35.7091 225.426 32.9257 225.251 32.8344C225.077 32.6479 201.278 41.7402 182.518 49.1621C180.174 50.0942 169.576 54.2647 159.066 58.2543C142.476 64.7478 109.731 77.4568 106.866 78.5754C106.258 78.7619 102.697 72.5443 98.7022 64.2891C78.4627 22.9143 67.2517 0 67.0846 0C66.9965 0 52.0569 31.8221 33.9911 70.6931ZM75.6834 64.0132C81.2421 75.8889 84.0215 82.8428 83.5001 83.4021C82.2848 84.6083 46.4174 99.3588 45.8906 98.8033C45.3692 98.3391 65.8675 45.4595 66.5632 45.4595C66.8239 45.4577 70.9067 53.8079 75.6834 64.0132Z" fill="#DE4141"/></svg>
